<?xml version="1.0" standalone="no"?>
<!DOCTYPE svg PUBLIC "-//W3C//DTD SVG 20010904//EN"
 "http://www.w3.org/TR/2001/REC-SVG-20010904/DTD/svg10.dtd">
<svg version="1.0" xmlns="http://www.w3.org/2000/svg"
 width="361.000000pt" height="361.000000pt" viewBox="0 0 361.000000 361.000000"
 preserveAspectRatio="xMidYMid meet">
<metadata>
Created by potrace 1.11, written by Peter Selinger 2001-2013
</metadata>
<g transform="translate(0.000000,361.000000) scale(0.100000,-0.100000)"
fill="#000000" stroke="none">
<path d="M1529 3595 c-308 -50 -567 -161 -821 -352 -366 -276 -601 -659 -679
-1108 -26 -149 -32 -496 -11 -615 49 -270 133 -495 256 -685 124 -189 250
-327 423 -462 49 -37 97 -76 107 -85 38 -34 303 -159 421 -197 227 -75 297
-85 580 -85 283 0 353 10 580 85 130 42 378 161 435 208 19 16 80 65 136 109
261 208 474 521 569 832 71 231 79 288 80 560 0 272 -7 327 -71 545 -97 325
-311 643 -578 857 -56 44 -117 93 -136 109 -57 47 -305 166 -435 208 -211 70
-291 83 -545 87 -160 2 -250 -1 -311 -11z"/>
</g>
</svg>
